<svg version="1.1" id="Layer_1" xmlns="http://www.w3.org/2000/svg" xmlns:xlink="http://www.w3.org/1999/xlink" x="0px" y="0px" viewBox="0 0 285.4 31.4"
	 style="enable-background:new 0 0 285.4 31.4;" xml:space="preserve" role="img" aria-labelledby="infolink-logo-title">
	<title id="infolink-logo-title">Suffolk InfoLink Community Directory</title>
	<style type="text/css">
		.blue{fill:#1766A1;}
	</style>
	<g id="Community_Directory">
		<g>
			<path class="blue" d="M87.3,15.8c-1.3-1.1-2.7-1.6-4.2-1.6c-1.5,0-2.7,0.5-3.6,1.4c-0.9,0.9-1.4,2.2-1.4,3.7
				c0,1.5,0.4,2.7,1.3,3.6c0.9,0.9,2,1.4,3.4,1.4c1.2,0,2.3-0.3,3.4-1c0.3-0.2,0.6-0.4,0.9-0.6c0.3-0.2,0.6-0.5,0.8-0.7v3.8
				l-0.2,0.1c-0.7,0.5-1.4,0.9-2.2,1.1c-0.8,0.2-1.7,0.4-2.5,0.4c-0.6,0-1.1,0-1.7-0.1c-2.2-0.4-4-1.5-5.2-3.3
				c-0.9-1.3-1.3-2.9-1.3-4.6c0-1.7,0.4-3.2,1.3-4.6c0.9-1.4,2.1-2.3,3.6-2.9c1-0.4,2-0.6,3.1-0.6c0.5,0,0.9,0,1.4,0.1
				c1.3,0.2,2.5,0.7,3.6,1.5l0.2,0.1L88,16.3L87.3,15.8z"/>
			<path class="blue" d="M90,21.8c0-0.4,0-0.7,0.1-1.1c0.1-0.4,0.2-0.7,0.3-1c0.1-0.3,0.3-0.6,0.5-0.9c0.2-0.3,0.4-0.6,0.7-0.8
				c0.2-0.2,0.5-0.5,0.8-0.7c0.3-0.2,0.6-0.4,0.9-0.5c0.3-0.1,0.6-0.2,1.1-0.3c0.4-0.1,0.8-0.1,1.1-0.1c0.8,0,1.5,0.1,2.2,0.4
				c0.3,0.1,0.6,0.3,1,0.5c0.3,0.2,0.6,0.5,0.9,0.7c0.3,0.3,0.5,0.5,0.7,0.8s0.4,0.6,0.5,0.9c0.1,0.3,0.2,0.6,0.3,1
				c0.1,0.3,0.1,0.7,0.1,1.1s0,0.7-0.1,1.1c-0.1,0.3-0.2,0.7-0.3,1c-0.2,0.4-0.3,0.7-0.5,0.9c-0.2,0.3-0.4,0.6-0.7,0.8
				c-0.3,0.3-0.6,0.5-0.9,0.7c-0.3,0.2-0.6,0.4-1,0.5h0c-0.3,0.1-0.7,0.2-1.1,0.3c-0.4,0.1-0.8,0.1-1.1,0.1s-0.7,0-1.1-0.1
				c-0.3-0.1-0.6-0.2-1-0.3h0c-0.4-0.1-0.7-0.3-1-0.5c-0.3-0.2-0.6-0.5-0.8-0.7c-0.3-0.3-0.5-0.5-0.7-0.8
				c-0.2-0.3-0.4-0.6-0.5-0.9c-0.1-0.3-0.2-0.6-0.3-1C90,22.4,90,22.1,90,21.8z M98.1,21.8c0-0.8-0.2-1.4-0.7-1.9
				c-0.2-0.2-0.5-0.5-0.8-0.6C96.3,19.1,96,19,95.6,19c-0.3,0-0.7,0.1-0.9,0.2c-0.3,0.1-0.6,0.3-0.8,0.6c-0.2,0.3-0.4,0.6-0.6,0.9
				c-0.1,0.3-0.2,0.7-0.2,1.1s0.1,0.7,0.2,1.1c0.1,0.3,0.3,0.6,0.6,0.9c0.2,0.3,0.5,0.5,0.8,0.6c0.3,0.1,0.6,0.2,0.9,0.2
				s0.7-0.1,0.9-0.2c0.3-0.1,0.6-0.3,0.8-0.6c0.2-0.2,0.4-0.5,0.5-0.9C98.1,22.5,98.1,22.2,98.1,21.8z"/>
			<path class="blue" d="M103.1,26.9V16.6h2.9v0.8c0.2-0.2,0.5-0.4,0.8-0.6c0.3-0.2,0.7-0.3,1-0.4c0.4-0.1,0.7-0.1,1.1-0.1
				c0.4,0,0.8,0,1.1,0.1c0.4,0.1,0.7,0.2,0.9,0.4c0.3,0.2,0.5,0.4,0.8,0.7c0,0,0.1,0.2,0.2,0.3c0.2-0.2,0.3-0.3,0.4-0.4
				c0.3-0.3,0.6-0.5,0.9-0.6c0.3-0.2,0.6-0.3,1-0.4c0.3-0.1,0.7-0.1,1.1-0.1c0.3,0,0.7,0,1,0.1c0.3,0,0.6,0.1,0.8,0.3
				c0.3,0.1,0.5,0.3,0.7,0.5c0.2,0.2,0.4,0.4,0.5,0.7c0.1,0.1,0.1,0.2,0.2,0.4c0.1,0.1,0.1,0.3,0.1,0.5c0,0.2,0.1,0.4,0.1,0.6
				c0,0.3,0,0.5,0,0.7v6.9h-3v-5.3c0-0.6,0-1.1-0.1-1.5c-0.1-0.3-0.1-0.6-0.2-0.8c-0.1-0.1-0.2-0.2-0.4-0.3
				c-0.2-0.1-0.4-0.1-0.7-0.1c-0.4,0-0.7,0.1-0.9,0.2c-0.2,0.1-0.4,0.3-0.6,0.5c-0.2,0.2-0.3,0.6-0.3,1c-0.1,0.4-0.1,1-0.1,1.6
				v4.7h-3v-5.3c0-0.6,0-1-0.1-1.4c-0.1-0.3-0.1-0.6-0.3-0.8c-0.1-0.1-0.2-0.3-0.4-0.4c-0.2-0.1-0.4-0.1-0.7-0.1
				c-0.2,0-0.3,0-0.5,0.1c-0.1,0-0.3,0.1-0.4,0.2c-0.1,0.1-0.3,0.2-0.4,0.3c-0.1,0.1-0.2,0.2-0.3,0.4c-0.1,0.1-0.1,0.2-0.1,0.3
				c-0.1,0.1-0.1,0.3-0.1,0.4c0,0.2,0,0.4-0.1,0.6c0,0.2,0,0.5,0,1.1v4.7L103.1,26.9L103.1,26.9z"/>
			<path class="blue" d="M120.7,26.9V16.6h2.9v0.8c0.2-0.2,0.5-0.4,0.8-0.6c0.3-0.2,0.7-0.3,1-0.4c0.4-0.1,0.7-0.1,1.1-0.1
				c0.4,0,0.8,0,1.1,0.1c0.4,0.1,0.7,0.2,0.9,0.4c0.3,0.2,0.5,0.4,0.8,0.7c0,0,0.1,0.2,0.2,0.3c0.2-0.2,0.3-0.3,0.4-0.4
				c0.3-0.3,0.6-0.5,0.9-0.6c0.3-0.2,0.6-0.3,1-0.4c0.4-0.1,0.7-0.1,1.1-0.1c0.4,0,0.7,0,1,0.1c0.3,0,0.6,0.1,0.9,0.3
				c0.3,0.1,0.5,0.3,0.7,0.5c0.2,0.2,0.4,0.4,0.5,0.7c0.1,0.1,0.1,0.2,0.2,0.4c0.1,0.1,0.1,0.3,0.1,0.5c0,0.2,0.1,0.4,0.1,0.6
				c0,0.3,0,0.5,0,0.7v6.9h-3v-5.3c0-0.6,0-1.1-0.1-1.5c-0.1-0.3-0.1-0.6-0.2-0.8c-0.1-0.1-0.2-0.2-0.4-0.3
				c-0.2-0.1-0.4-0.1-0.7-0.1c-0.4,0-0.7,0.1-0.9,0.2c-0.2,0.1-0.4,0.3-0.6,0.5c-0.2,0.2-0.3,0.6-0.3,1c-0.1,0.4-0.1,1-0.1,1.6
				v4.7h-3v-5.3c0-0.6,0-1-0.1-1.4c-0.1-0.3-0.1-0.6-0.3-0.8c-0.1-0.1-0.2-0.3-0.4-0.4c-0.2-0.1-0.4-0.1-0.7-0.1
				c-0.2,0-0.3,0-0.5,0.1c-0.1,0-0.3,0.1-0.4,0.2c-0.1,0.1-0.3,0.2-0.4,0.3c-0.1,0.1-0.2,0.2-0.3,0.4c-0.1,0.1-0.1,0.2-0.1,0.3
				c-0.1,0.1-0.1,0.3-0.1,0.4c0,0.2,0,0.4-0.1,0.6c0,0.2,0,0.5,0,1.1v4.7L120.7,26.9L120.7,26.9z"/>
			<path class="blue" d="M141.3,22.3c0,0.4,0,0.8,0.1,1.1c0.1,0.2,0.2,0.5,0.3,0.6c0.1,0.1,0.3,0.3,0.6,0.3c0.2,0.1,0.6,0.1,1,0.1
				s0.7,0,1-0.1c0.2-0.1,0.4-0.2,0.6-0.3c0.1-0.2,0.2-0.4,0.3-0.6c0.1-0.3,0.1-0.6,0.1-1.1v-5.7h3v5.1c0,1-0.1,1.8-0.3,2.5
				c-0.2,0.7-0.5,1.3-0.9,1.8c-0.4,0.5-0.9,0.8-1.6,1c-0.6,0.2-1.4,0.3-2.2,0.3c-0.8,0-1.6-0.1-2.2-0.3c-0.7-0.2-1.2-0.5-1.6-1
				c-0.4-0.4-0.7-1-0.9-1.8c-0.2-0.7-0.3-1.5-0.3-2.5v-5.1h3L141.3,22.3L141.3,22.3z"/>
			<path class="blue" d="M150.1,16.6h2.9v0.8c0.3-0.3,0.6-0.5,0.9-0.6c0.3-0.2,0.7-0.3,1.1-0.4c0.4-0.1,0.8-0.1,1.2-0.1
				c0.4,0,0.7,0,1.1,0.1s0.6,0.1,0.9,0.3c0.3,0.1,0.5,0.3,0.8,0.5c0.2,0.2,0.4,0.4,0.6,0.7c0.1,0.2,0.2,0.3,0.2,0.5
				c0.1,0.2,0.1,0.4,0.2,0.5c0,0.2,0.1,0.5,0.1,0.8c0,0.3,0,0.7,0,1.1v6.1h-3v-5.3c0-0.6,0-1.1-0.1-1.5c-0.1-0.3-0.1-0.6-0.3-0.7
				c-0.1-0.1-0.3-0.2-0.4-0.3c-0.2-0.1-0.5-0.1-0.8-0.1c-0.2,0-0.4,0-0.6,0.1s-0.4,0.1-0.5,0.2c-0.2,0.1-0.3,0.2-0.4,0.3
				c-0.1,0.1-0.2,0.2-0.3,0.4l0,0c-0.1,0.1-0.1,0.2-0.1,0.3c-0.1,0.1-0.1,0.3-0.1,0.4c0,0.2,0,0.4-0.1,0.6c0,0.3,0,0.7,0,1v4.7h-3
				L150.1,16.6L150.1,16.6z"/>
			<path class="blue" d="M161.9,13c0-0.2,0-0.5,0.1-0.7c0.1-0.2,0.2-0.4,0.4-0.6c0.2-0.2,0.4-0.3,0.6-0.4c0.2-0.1,0.4-0.1,0.7-0.1
				c0.2,0,0.5,0,0.7,0.1c0.2,0.1,0.4,0.2,0.6,0.4c0.2,0.2,0.3,0.4,0.4,0.6c0.1,0.2,0.1,0.4,0.1,0.7c0,0.5-0.2,0.9-0.5,1.3
				c-0.2,0.2-0.4,0.3-0.6,0.4c-0.2,0.1-0.4,0.1-0.7,0.1s-0.5-0.1-0.7-0.1c-0.2-0.1-0.4-0.2-0.6-0.4c-0.2-0.2-0.3-0.4-0.4-0.6
				C162,13.4,161.9,13.2,161.9,13z M162.2,16.6h3v10.3h-3V16.6z"/>
			<path class="blue" d="M169,19.3h-1.6v-2.7h1.6V13h3v3.6h1.6v2.7H172v7.5h-3V19.3z"/>
			<path class="blue" d="M176.3,31.3l0.3-0.6l2.5-5.1l-3.4-8.4l-0.2-0.6h3.3l0.1,0.3l1.7,4.9l0,0c0.1,0.2,0.1,0.3,0.1,0.5l0,0
				l0.1-0.3l0.1-0.1l0,0l2.3-5l0.1-0.2h3.3l-0.3,0.6l-6.8,13.9l-0.1,0.2L176.3,31.3L176.3,31.3z"/>
			<path class="blue" d="M193.7,11.5h3.6c1,0,1.9,0,2.7,0.1c0.6,0,1.1,0.1,1.6,0.2s1,0.3,1.4,0.5c1,0.5,1.8,1.2,2.4,2.1
				c0.6,0.9,1,1.9,1.2,3c0.1,0.6,0.2,1.2,0.2,1.9c0,0.3,0,0.6,0,0.9c-0.1,1-0.3,1.9-0.7,2.7c-0.2,0.5-0.5,1-0.9,1.5
				c-0.6,0.8-1.4,1.4-2.3,1.9c-0.4,0.2-0.8,0.3-1.2,0.4c-0.1,0-0.3,0.1-0.7,0.1c-0.4,0.1-0.7,0.1-0.9,0.1c-0.7,0-1.4,0.1-2.3,0.1
				h-4.2L193.7,11.5L193.7,11.5z M196.9,23.9h1.5c0.6,0,1,0,1.5-0.1c0.4,0,0.7-0.1,0.9-0.1c0.5-0.1,0.9-0.4,1.3-0.6v0
				c0.6-0.5,1-1.1,1.2-1.7c0.2-0.7,0.3-1.4,0.3-2.1s-0.1-1.4-0.3-2.1c-0.2-0.7-0.6-1.3-1.2-1.8c-0.3-0.3-0.7-0.5-1.1-0.6
				c-0.4-0.1-0.8-0.2-1.3-0.2c-0.4,0-0.9-0.1-1.4-0.1c-0.5,0-1,0-1.4,0V23.9z"/>
			<path class="blue" d="M208.7,13c0-0.2,0-0.5,0.1-0.7c0.1-0.2,0.2-0.4,0.4-0.6c0.2-0.2,0.4-0.3,0.6-0.4c0.2-0.1,0.4-0.1,0.7-0.1
				c0.2,0,0.5,0,0.7,0.1c0.2,0.1,0.4,0.2,0.6,0.4c0.2,0.2,0.3,0.4,0.4,0.6c0.1,0.2,0.1,0.4,0.1,0.7c0,0.5-0.2,0.9-0.5,1.3
				c-0.2,0.2-0.4,0.3-0.6,0.4c-0.2,0.1-0.4,0.1-0.7,0.1s-0.5-0.1-0.7-0.1c-0.2-0.1-0.4-0.2-0.6-0.4c-0.2-0.2-0.3-0.4-0.4-0.6
				C208.8,13.4,208.7,13.2,208.7,13z M209,16.6h3v10.3h-3V16.6z"/>
			<path class="blue" d="M217.1,17.4c0.5-0.5,1.2-0.8,2-0.9c0.1,0,0.2,0,0.3,0c0.7,0,1.3,0.2,2,0.5l-1.1,2.6
				c-0.3-0.2-0.5-0.4-0.7-0.5c-0.2-0.1-0.4-0.2-0.8-0.2c-0.6,0-0.9,0.2-1.2,0.6c-0.2,0.3-0.3,0.8-0.3,1.3c-0.1,0.5-0.1,1-0.1,1.4
				v4.6h-3V16.6h3L217.1,17.4L217.1,17.4z"/>
			<path class="blue" d="M224.9,22.5c0.2,1.4,1,2.1,2.5,2.1h0c1.1,0,1.9-0.6,2.4-1.8l2.5,1.3c-0.2,0.3-0.3,0.5-0.5,0.8
				s-0.3,0.5-0.6,0.7c-0.4,0.4-0.8,0.7-1.2,1c-0.9,0.5-1.9,0.8-3,0.8c-1.6,0-2.9-0.5-3.9-1.5c-1-1-1.5-2.3-1.5-4
				c0-1.6,0.5-2.9,1.5-3.9c1-1,2.3-1.6,3.9-1.6c1.6,0,2.9,0.5,3.9,1.4c0.5,0.5,0.9,1.1,1.1,1.8c0.2,0.7,0.3,1.4,0.3,2.1v0.8H224.9
				z M229.2,20.2c-0.1-0.5-0.4-0.8-0.8-1c-0.4-0.2-0.8-0.3-1.2-0.3c-0.6,0-1.1,0.1-1.4,0.4h0c-0.2,0.2-0.4,0.5-0.6,0.8H229.2z"/>
			<path class="blue" d="M241.6,19.6c-0.2-0.1-0.4-0.2-0.5-0.3s-0.4-0.1-0.6-0.2s-0.4-0.1-0.7-0.1c-0.4,0-0.7,0.1-1,0.2
				c-0.3,0.1-0.6,0.3-0.8,0.5h0c-0.2,0.3-0.4,0.5-0.5,0.9c-0.1,0.3-0.2,0.7-0.2,1.1c0,0.4,0.1,0.8,0.2,1.2
				c0.1,0.3,0.3,0.6,0.5,0.8c0.2,0.2,0.5,0.4,0.8,0.5c0.3,0.1,0.7,0.2,1.1,0.2c0.2,0,0.4,0,0.7-0.1s0.4-0.1,0.6-0.2
				c0.1,0,0.1-0.1,0.2-0.1s0.2-0.1,0.3-0.2c0.2-0.2,0.4-0.4,0.6-0.6c0.2-0.2,0.4-0.4,0.6-0.7v3.8l-0.2,0.1
				c-0.2,0.1-0.5,0.2-0.7,0.3c-0.2,0.1-0.5,0.2-0.7,0.2c-0.2,0-0.5,0.1-0.8,0.1c-0.3,0-0.6,0-0.8,0c-0.8,0-1.5-0.1-2.2-0.4
				c-0.7-0.2-1.2-0.6-1.7-1.1c-0.5-0.5-0.9-1.1-1.1-1.8c-0.2-0.6-0.4-1.4-0.4-2.2c0-0.8,0.1-1.5,0.4-2.2c0.3-0.6,0.7-1.2,1.2-1.8
				c0.5-0.5,1.1-0.9,1.8-1.1c0.7-0.2,1.4-0.4,2.3-0.4c0.3,0,0.5,0,0.8,0c0.3,0,0.6,0.1,0.7,0.1c0.2,0.1,0.4,0.1,0.7,0.2
				c0.2,0.1,0.4,0.2,0.6,0.3l0.2,0.1v3.7c-0.2-0.2-0.4-0.5-0.6-0.6C242.1,19.9,241.9,19.8,241.6,19.6z"/>
			<path class="blue" d="M246.3,19.3h-1.6v-2.7h1.6V13h3v3.6h1.6v2.7h-1.6v7.5h-3V19.3z"/>
			<path class="blue" d="M252,21.8c0-0.4,0-0.7,0.1-1.1c0.1-0.4,0.2-0.7,0.3-1c0.1-0.3,0.3-0.6,0.5-0.9c0.2-0.3,0.4-0.6,0.7-0.8
				c0.2-0.2,0.5-0.5,0.9-0.7c0.3-0.2,0.6-0.4,0.9-0.5c0.3-0.1,0.6-0.2,1-0.3c0.4-0.1,0.8-0.1,1.1-0.1c0.8,0,1.5,0.1,2.2,0.4
				c0.3,0.1,0.6,0.3,1,0.5c0.3,0.2,0.6,0.5,0.9,0.7c0.3,0.3,0.5,0.5,0.7,0.8s0.4,0.6,0.5,0.9c0.1,0.3,0.2,0.6,0.3,1
				c0.1,0.3,0.1,0.7,0.1,1.1s0,0.7-0.1,1.1c-0.1,0.3-0.2,0.7-0.3,1c-0.2,0.4-0.3,0.7-0.5,0.9c-0.2,0.3-0.5,0.6-0.7,0.8
				c-0.3,0.3-0.6,0.5-0.9,0.7c-0.3,0.2-0.6,0.4-1,0.5h0c-0.3,0.1-0.7,0.2-1,0.3c-0.4,0.1-0.8,0.1-1.1,0.1s-0.7,0-1.1-0.1
				c-0.3-0.1-0.6-0.2-1-0.3h0c-0.4-0.1-0.7-0.3-1-0.5c-0.3-0.2-0.6-0.5-0.9-0.7c-0.3-0.3-0.5-0.5-0.7-0.8
				c-0.2-0.3-0.4-0.6-0.5-0.9c-0.1-0.3-0.2-0.6-0.3-1C252,22.4,252,22.1,252,21.8z M260.1,21.8c0-0.8-0.2-1.4-0.7-1.9
				c-0.2-0.2-0.5-0.5-0.8-0.6c-0.3-0.1-0.6-0.2-1-0.2c-0.3,0-0.6,0.1-1,0.2c-0.3,0.1-0.5,0.3-0.8,0.6c-0.2,0.3-0.4,0.6-0.6,0.9
				c-0.1,0.3-0.2,0.7-0.2,1.1s0.1,0.7,0.2,1.1c0.1,0.3,0.3,0.6,0.6,0.9c0.3,0.3,0.5,0.5,0.8,0.6c0.3,0.1,0.6,0.2,1,0.2
				c0.4,0,0.7-0.1,1-0.2c0.3-0.1,0.5-0.3,0.8-0.6c0.2-0.2,0.4-0.5,0.5-0.9C260,22.5,260.1,22.2,260.1,21.8z"/>
			<path class="blue" d="M268.1,17.4c0.5-0.5,1.2-0.8,2-0.9c0.1,0,0.2,0,0.3,0c0.7,0,1.3,0.2,2,0.5l-1.1,2.6
				c-0.3-0.2-0.5-0.4-0.7-0.5c-0.2-0.1-0.5-0.2-0.8-0.2c-0.5,0-0.9,0.2-1.2,0.6c-0.2,0.3-0.3,0.8-0.3,1.3c0,0.5-0.1,1-0.1,1.4v4.6
				h-3V16.6h3V17.4z"/>
			<path class="blue" d="M275,31.3l0.3-0.6l2.5-5.1l-3.4-8.4l-0.2-0.6h3.3l0.1,0.3l1.7,4.9l0,0c0.1,0.2,0.1,0.3,0.1,0.5l0,0
				l0.1-0.3l0-0.1l0,0l2.3-5l0.1-0.2h3.3l-0.3,0.6l-6.8,13.9l-0.1,0.2L275,31.3L275,31.3z"/>
		</g>
	</g>
	<g>
		<g>
			<g>
				<path class="blue" d="M5.2,20.6h3.9v6.6H5.2V20.6z"/>
				<path class="blue" d="M10.1,17.1h3.8l-0.1,1.6c0.1-0.1,0.1-0.2,0.2-0.3c0.9-1.2,2.3-1.8,3.8-1.5c1.9,0.3,2.8,1.6,2.8,3.9v6.4
					h-3.8v-5.3c0-1.1-0.4-1.6-1.1-1.8c-0.2,0-0.3,0-0.5,0c-0.8,0.2-1.2,0.7-1.2,1.8v5.3h-3.9V17.1z"/>
				<path class="blue" d="M21.2,17.1h1.3v-2.6c0-3.1,1.9-4.7,5.2-4c0.2,0,0.3,0.1,0.5,0.1v3.3c0,0-0.1-0.1-0.1-0.1
					c-0.2-0.1-0.5-0.2-0.7-0.1c-0.6,0.1-1,0.5-1,1.5v1.9h1.9v3.1l-1.9-0.1v7.1h-3.8v-7.1l-1.3,0.1V17.1z"/>
				<path class="blue" d="M34.3,16.7c3.5,0,5.8,2.4,5.8,5.4s-2.4,5.4-5.8,5.4s-5.8-2.4-5.8-5.4C28.5,19.1,30.9,16.7,34.3,16.7z
						M32.3,22.6c0.1,0.9,0.8,1.5,1.6,1.7c1.3,0.3,2.5-0.7,2.5-2.1c0-1.1-0.7-1.9-1.6-2.1c-0.3-0.1-0.6-0.1-0.8,0
					c-0.9,0.2-1.5,0.8-1.6,1.7c0,0.1,0,0.3,0,0.4C32.2,22.3,32.2,22.4,32.3,22.6z"/>
				<path class="blue" d="M42,12.2h1.9v13.4h4.5v1.7H42V12.2z"/>
				<path class="blue" d="M50.7,13.3c0.7,0,1.2,0.5,1.2,1.2c0,0.7-0.5,1.2-1.2,1.2c-0.7,0-1.2-0.5-1.2-1.2
					C49.5,13.8,50,13.3,50.7,13.3z M49.8,17.8h1.8v9.5h-1.8V17.8z"/>
				<path class="blue" d="M54,17.8h1.8l0,1.9c0.1-0.1,0.1-0.2,0.2-0.4c0.5-1,1.4-1.6,2.5-1.7c0.4,0,0.8,0,1.1,0
					c1.8,0.3,2.6,1.5,2.6,3.6v6h-1.8v-5.5c0-1.1-0.2-1.7-0.8-2.1c-0.5-0.4-1.2-0.6-1.9-0.4c-1.3,0.2-2,1.3-2,2.9v5.2H54V17.8z"/>
				<path class="blue" d="M64.3,10.1h1.8v10.5v0.3v0.2c0,0.3-0.1,0.7-0.1,1c0.1-0.3,0.4-0.6,0.6-0.9l0.4-0.4l3-3.2h2.4L68.1,22
					l4.7,5.3h-2.4l-3.5-4.1L66.1,24v3.3h-1.8V10.1z"/>
			</g>
			<path class="blue" d="M8.2,19.2l-2.4,0c-0.2,0-0.4-0.2-0.4-0.4s0.2-0.4,0.4-0.4h2.9c0.1,0,0.1,0,0.1-0.1c0-0.1,0-0.1-0.1-0.1
				l-3.2,0c-0.2,0-0.4-0.2-0.4-0.4s0.2-0.4,0.4-0.4l3.3,0c0.1,0,0.1,0,0.1-0.1c0-0.1,0-0.1-0.1-0.1H7.1c-0.6,0-1.1,0-1.7,0
				c-0.2,0-0.3-0.1-0.4-0.4c0,0,0-0.1,0-0.2c0-0.5-0.3-1-0.6-1.3c-0.6-0.5-0.9-1.1-0.9-2.3c0-2.5,1.9-4,3.7-4C7.8,9,8.4,9.2,9,9.7
				c0.6,0.4,1.1,1,1.4,1.7c0.2,0.4,0.3,0.9,0.4,1.3c0.1,0.5,0,0.9-0.2,1.4c-0.2,0.5-0.4,0.8-0.6,1.2l-0.1,0.1
				c-0.1,0.2-0.3,0.3-0.4,0.5c-0.1,0.2-0.2,0.5-0.2,0.8l0,0.1c0,0.1-0.1,0.1-0.2,0.1C9,16.8,9,16.7,9,16.6l0-0.1
				c0-0.3,0.1-0.6,0.3-0.9c0.1-0.2,0.3-0.4,0.4-0.6L9.8,15c0.2-0.3,0.4-0.6,0.6-1.1c0.2-0.4,0.2-0.8,0.2-1.3
				c-0.1-0.4-0.2-0.8-0.4-1.2c-0.3-0.6-0.8-1.2-1.3-1.6C8.3,9.5,7.7,9.3,7.1,9.3c-1.7,0-3.4,1.4-3.4,3.7c0,1,0.3,1.5,0.8,2
				C5,15.5,5.2,16,5.3,16.6c0,0.1,0,0.1,0,0.1c0,0,0,0.1,0.1,0.1c0.6,0,1.2,0,1.7,0h1.7c0.2,0,0.4,0.2,0.4,0.4
				c0,0.2-0.2,0.4-0.4,0.4l-0.8,0H5.5c-0.1,0-0.1,0-0.1,0.1s0,0.1,0.1,0.1l3.2,0c0.2,0,0.4,0.2,0.4,0.4c0,0.2-0.2,0.4-0.4,0.4H5.8
				c-0.1,0-0.1,0-0.1,0.1s0,0.1,0.1,0.1l2.4,0c0.1,0,0.1,0.1,0.1,0.1C8.4,19.1,8.3,19.2,8.2,19.2z"/>
			<path class="blue" d="M4.5,6c0.1,0.1,0.2,0.2,0.3,0.3C5.4,6.8,6.1,6.6,6.3,6c0.1-0.4-0.1-0.7-0.6-0.9L5.4,5L5.2,4.9L5.1,4.9
				c-0.9-0.4-1.3-1.2-1-2C4.3,2,5.2,1.4,6.3,1.5c0.5,0.1,0.9,0.3,1.3,0.6L6.9,3c0,0-0.1-0.1-0.1-0.1C6.6,2.7,6.4,2.6,6.2,2.6
				C5.7,2.5,5.4,2.7,5.3,3.1C5.2,3.4,5.4,3.7,5.8,3.9c0,0,0,0,0.1,0l0.1,0L6.1,4l0.3,0.1c1,0.4,1.4,1.1,1.2,2.1
				C7.4,7.2,6.5,7.8,5.3,7.7C4.7,7.6,4.1,7.4,3.8,6.9L4.5,6z"/>
			<path class="blue" d="M8.3,3.7h1.2v2.2c0,0.5,0.3,0.8,0.7,0.8c0.5,0,0.7-0.3,0.7-0.8V3.7h1.2v2.2c0,1.1-0.5,1.7-1.6,1.8
				c-0.2,0-0.4,0-0.7,0C8.7,7.5,8.3,6.9,8.3,5.8V3.7z"/>
			<path class="blue" d="M12.6,3.7h0.5V2.3c0-1.1,0.7-1.7,1.8-1.5c0.1,0,0.1,0,0.2,0V2c-0.1-0.1-0.2-0.1-0.3-0.1
				c-0.3,0-0.5,0.2-0.5,0.6v1.2H15v1l-0.8,0v2.9h-1.2V4.6h-0.5V3.7z"/>
			<path class="blue" d="M15.2,3.7h0.5V2.3c0-1.1,0.7-1.7,1.8-1.5c0.1,0,0.1,0,0.2,0V2c-0.1-0.1-0.2-0.1-0.3-0.1
				c-0.3,0-0.5,0.2-0.5,0.6v1.2h0.8v1l-0.8,0v2.9h-1.2V4.6h-0.5V3.7z"/>
			<path class="blue" d="M17.8,5.2C18,4,19.1,3.3,20.3,3.6c1,0.2,1.7,1,1.7,2c0,1.2-0.9,2.1-2.1,2.1c-1.2,0-2.2-0.9-2.2-2.1
				C17.7,5.5,17.7,5.3,17.8,5.2z M18.9,5.8c0.1,0.4,0.4,0.7,0.8,0.8c0.6,0.1,1.2-0.3,1.2-1c0-0.1,0-0.1,0-0.2
				c-0.1-0.4-0.4-0.7-0.8-0.8c-0.1,0-0.3,0-0.4,0C19.3,4.7,19,5,18.9,5.4c0,0.1,0,0.1,0,0.2C18.9,5.7,18.9,5.7,18.9,5.8z"/>
			<path class="blue" d="M22.7,0.8h1.2v6.7h-1.2V0.8z"/>
			<path class="blue" d="M24.7,0.8h1.2v3.9v0l0,0.2v0.2l0,0.2c0-0.1,0.1-0.2,0.2-0.3L26.1,5l0-0.1l1-1.2h1.5L27,5.5l1.8,2.1h-1.5
				l-1.2-1.5L26,6l0,0c0-0.1-0.1-0.2-0.2-0.2l0,0.1V6l0,0.2v1.4h-1.2V0.8z"/>
		</g>
	</g>
</svg>
